<svg version="1.1" xmlns="http://www.w3.org/2000/svg" viewBox="-2679.997104046307 -2751.325530872715 5906.784798160062 4780.0899066636"><desc>Created with Snap</desc><defs></defs><g><g transform="matrix(13.4752,0,0,13.4752,-2470.5035,-2915.4003)">
<g id="gSks1ylsvk3l1">
	<path d="M196.02133,47.02528C162.0565,63.37874,34.04472,181.23653,17.95026,220.8622
		C-23.53873,323.01114,64.3831,338.37173,131.90678,342.95166c83.79094,5.68329,233.84074-6.40137,262.61847-108.008
		C427.85785,117.2548,302.42114-4.2047,196.02133,47.02528z" fill="#225662" style=""></path>
</g>


<desc>Created with Snap</desc><defs></defs></g><g><g transform="matrix(1.024,0,0,-1.024,0,0)"><path d="M974 223Q987 223 994 211Q1002 199 1002 178Q1002 139 983 116Q884 -5 772 -5Q675 -5 617 70Q559 145 559 285Q559 319 562 353Q496 341 418 335Q366 331 347 330Q327 228 291 80Q270 -7 211 -7Q147 -7 147 51Q147 64 152 87Q186 224 206 319L158 317Q125 317 110 328Q95 340 95 366Q95 399 114 414Q133 430 177 432L230 434Q256 575 256 649Q256 696 242 713Q228 730 205 730Q135 730 47 613Q34 596 18 596Q4 596 -6 609Q-16 622 -16 642Q-16 673 9 708Q53 769 120 808Q187 848 256 848Q321 848 356 803Q392 759 392 665Q392 582 368 440L466 445Q529 448 574 455Q592 565 629 661Q666 757 721 817Q776 877 844 877Q894 877 923 837Q952 798 952 734Q952 486 699 390Q696 350 696 307Q696 202 722 158Q748 114 795 114Q836 114 870 135Q904 157 947 209Q959 223 974 223ZM839 790Q817 790 792 750Q768 710 746 641Q724 572 711 490Q791 523 829 584Q867 645 867 741Q867 764 859 777Q851 790 839 790Z" fill="#f9d1c8" style=""></path></g></g><g transform="matrix(0.75,0,0,0.75,268.4801,864.64)"><g transform="matrix(0.512,0,0,-0.512,0,0)"><path d="M174 1433L1057 1433L1057 1275L369 1275L369 774L957 774L957 616L369 616L369 0L174 0L174 1433Z" fill="#f9d1c8" style=""></path></g></g></g></svg>